PathFileType	4	(X/Y/Z)	Patient4_TMGait_0pt7_01_right_03.trc.trc
DataRate	CameraRate	NumFrames	NumMarkers	Units	OrigDataRate	OrigDataStartFrame	OrigNumFrames
85.889570552147	85.889570552147	4	33	mm	85.889570552147	124	       141
Frame#	Time	Sacral			L.Shoulder			Chest			R.Shoulder			Neck			R.ASIS			L.ASIS			R.Thigh.Superior			R.Thigh.Lateral			R.Thigh.Inferior			R.Patella			L.Thigh.Superior			L.Thigh.Lateral			L.Thigh.Inferior			L.Patella			L.Shank.Superior			L.Shank.Lateral			L.Shank.Inferior			R.Shank.Superior			R.Shank.Lateral			R.Shank.Inferior			R.Heel			R.Midfoot.Superior			R.Midfoot.Lateral			R.Toe			L.Heel			L.Midfoot.Lateral			L.Midfoot.Superior			L.Toe			L.Elbow			L.Wrist			R.Elbow			R.Wrist			
		X1	Y1	Z1	X2	Y2	Z2	X3	Y3	Z3	X4	Y4	Z4	X5	Y5	Z5	X6	Y6	Z6	X7	Y7	Z7	X8	Y8	Z8	X9	Y9	Z9	X10	Y10	Z10	X11	Y11	Z11	X12	Y12	Z12	X13	Y13	Z13	X14	Y14	Z14	X15	Y15	Z15	X16	Y16	Z16	X17	Y17	Z17	X18	Y18	Z18	X19	Y19	Z19	X20	Y20	Z20	X21	Y21	Z21	X22	Y22	Z22	X23	Y23	Z23	X24	Y24	Z24	X25	Y25	Z25	X26	Y26	Z26	X27	Y27	Z27	X28	Y28	Z28	X29	Y29	Z29	X30	Y30	Z30	X31	Y31	Z31	X32	Y32	Z32	X33	Y33	Z33	

124	4.312071428571	697.524782236359	986.579353349786	490.067354804124	904.430872203181	1419.035250541521	335.648017244090	978.053176141693	1345.175713030368	511.616999699717	866.426297271536	1422.691742622433	667.695912867135	881.488387290302	1477.354143394961	489.501810254053	909.699406295655	927.099500213287	636.537218763177	928.266267888930	946.736573152480	361.080441110646	989.825580242436	753.857867532644	614.505278472675	932.342417051248	627.386778110754	672.615276591265	1031.332370689216	595.979422826122	604.559749169539	1057.992857757479	513.515023740940	615.516988667303	921.007993161719	719.845248811463	385.554515745870	803.358225632209	630.373167344316	313.958773647947	852.610004940248	533.770529548461	382.108403634217	832.969746512499	465.748174197986	389.759868005282	795.587540587907	402.092237966593	378.575925363176	689.829644723197	305.201399245438	322.328431666292	716.402512806655	186.777135850131	394.665564983967	1047.334311565481	422.718486785507	622.375481880291	992.555105826386	305.302019318189	675.359146111344	1068.910860941195	224.240369988971	627.045946361917	983.616232620928	42.068905836847	584.695396548265	1142.633609480990	111.227447927467	638.975095861224	1060.601905565308	39.039406248225	665.111823703455	1263.645852541786	72.167035263386	676.434698252403	568.031099730448	40.715704408487	430.960870524918	643.326771652710	35.891400297298	352.041951758069	727.781878058498	95.018831442733	380.357695866011	855.661222101819	39.888903098464	352.843838764079	946.941667002588	1094.226689135758	179.598890547740	1193.619022672483	1089.220117365155	234.465254440055	684.010106477282	1127.735637247048	756.231427979519	627.576054601576	871.644474511124	760.725678359094	
125	4.323714285714	698.648571396683	985.182542870782	493.388515420787	903.774099264500	1418.342513417354	338.689565967387	978.262205419151	1344.485967156807	514.370557427758	866.825806631066	1421.381115334671	670.958569601028	881.339606706400	1476.467548217142	492.834979962821	911.920651090725	926.139385581617	638.775968328263	928.957397609695	945.916121525370	363.428309540908	992.944208087965	752.944120153291	616.060753653669	934.422514631853	626.210814988010	672.721180012080	1033.458767400568	595.124813172116	604.968635244949	1058.750392129394	511.238021320921	614.809012974441	922.275221480750	718.844128184382	387.306674516426	804.350346190836	629.138439145730	316.497384702593	854.317980667213	532.233196194545	384.105296895689	834.610824095100	463.139398357966	391.387166102810	795.133055006285	400.083231735454	380.209123932887	686.827180986682	305.989755068803	323.845921475626	710.871873920978	186.449140534105	395.103331289232	1046.732516657989	419.863927048335	621.385359610278	989.972366961313	303.362010585537	674.483848852373	1063.713838346333	220.822604709373	625.007365172590	972.924274926093	41.804520169714	583.034858172718	1133.984295967792	107.136511939571	635.987094885752	1050.004776665989	37.735850847952	663.477123883882	1254.353327635118	64.866193830123	673.495034141287	559.972151069985	42.544884618009	430.678589600884	635.307489946180	36.628706502045	351.950272782573	720.344921832038	95.163887716587	380.134319973142	847.574029097409	39.554818949007	352.738677221728	943.906225870624	1092.712560569559	182.957903235017	1190.703697849561	1086.930032742875	237.428347824406	688.161629874061	1123.306075785874	759.061928494720	635.027476839848	866.440709193029	762.371453276204	
126	4.335357142857	699.705717005398	984.124274498734	496.790140381229	903.115091261074	1417.969448341311	341.883413716964	978.569040960407	1344.031274196544	517.196162949434	867.490761521112	1420.306649486347	674.409338426322	881.365454260937	1475.895652928783	496.372317111833	914.149805457589	925.555614499903	640.992002296870	929.588644648961	945.462867936034	365.826283363396	995.817545126363	752.164721071317	617.432944154392	936.474748131548	625.558257870854	673.145434704661	1035.178725839553	594.468130847162	605.275732083139	1059.221404902401	509.281307026742	614.282977347624	923.892296403158	718.170331137113	389.062766926627	805.897175313995	627.940355053346	319.170164550905	857.026628496041	530.815950746782	386.097299382992	837.408504127393	460.493432132174	392.865701411692	795.515819602458	398.139160951627	381.785947359667	684.437811679573	307.210675003322	325.427657421974	705.824580491873	186.493771227762	395.457121216501	1045.891778755342	417.466050347484	620.691397821207	987.432086661901	301.870694955622	674.187657132006	1058.529921813985	217.919304237923	623.422090132504	962.423641344896	41.740354299885	581.945200970030	1125.339171891023	103.744422712703	633.585711247812	1039.641559961929	36.790533422794	662.373051487869	1245.168254175799	58.628549866006	671.074048806047	552.070713893842	45.325243501086	430.358219616231	627.355122264417	37.873245377262	351.835182546114	713.202853726325	95.452974540983	379.807852786136	839.408769926632	39.166083397584	352.653468044061	940.235179844885	1091.318446840703	186.622064146611	1187.240820192972	1083.542848319118	240.355054466555	693.270737614809	1118.626257404021	762.167315641189	643.958625874065	860.912550279112	764.321699594795	
127	4.347000000000	700.667112623213	983.468409706425	500.230505853818	902.471244997347	1417.972790582578	345.205227881812	978.970185283619	1343.853649827735	520.067786057887	868.428501571698	1419.534827803178	678.009073138440	881.579213583949	1475.684137012494	500.072844509201	916.308670923341	925.399170141833	643.188304985558	930.144853896094	945.429747022846	368.265889901556	998.263119632947	751.550815508382	618.647683821461	938.335541532940	625.445092660324	673.962076251862	1036.320236682575	594.015605013105	605.560521692693	1059.234794233752	507.712159928221	614.058364176613	925.850602208173	717.876519270642	390.853937782451	808.088915710024	626.799679533779	321.930126987284	860.828475482665	529.571221948020	388.064688602409	841.449148019146	457.885750723951	394.156676993782	796.849898280183	396.320848210203	383.271319495043	682.808729614193	308.944115554623	327.045087346036	701.390319637002	187.021313195732	395.732118520509	1044.693006490452	415.584574334504	620.390906421338	984.842368738831	300.847613479819	674.483393323047	1053.392682717087	215.620798692700	622.367965095946	952.436852315000	41.810097139156	581.386409798804	1116.890559038674	101.170995658762	631.853786026827	1029.803906720504	36.183798110781	661.779645947934	1236.300476695199	53.760191492216	669.280756524698	544.435183930550	49.290268856811	430.029213036600	619.527428068310	39.805656125511	351.717417271617	706.447479726241	95.954046129013	379.392590503604	831.152054730553	38.702569842484	352.603382372898	935.936867778296	1090.131591672109	190.593215886081	1183.194487645474	1079.075506638435	243.238419645703	699.293819850713	1113.865840867121	765.512430386373	654.319141801481	855.256522339383	766.615731672385	
